# xmcd
#
# Track frame offsets: 
#        150
#        14290
#        24682
#        40882
#        57458
#        71853
#        89255
#        106352
#        120747
#        133009
#        147349
#        164330
#        180330
#
# Disc length: 2595 seconds
#
# Revision: 0
# Processed by: cddbd v1.5.2PL0 Copyright (c) Steve Scherf et al.
# Submitted via: ExactAudioCopyFreeDBPlugin 1.0
#
DISCID=b70a210d
DTITLE=Simcoe County Ramblers - SCR
DYEAR=2012
DGENRE=Bluegrass
TTITLE0=A Good Man
TTITLE1=Mama Tried
TTITLE2=Ordinary Girl
TTITLE3=Wayfaring Stranger
TTITLE4=Three Days Last May
TTITLE5=Stepping Forward
TTITLE6=Big Cedar
TTITLE7=My Dear Companion
TTITLE8=Who's Crying Baby
TTITLE9=Pinecone Ring
TTITLE10=Lester Met Esther
TTITLE11=Wild Flowers
TTITLE12=Devil's Night in Coe Hill
EXTD=
EXTT0=
EXTT1=
EXTT2=
EXTT3=
EXTT4=
EXTT5=
EXTT6=
EXTT7=
EXTT8=
EXTT9=
EXTT10=
EXTT11=
EXTT12=
PLAYORDER=
